<svg xmlns="http://www.w3.org/2000/svg" xmlns:xlink="http://www.w3.org/1999/xlink" width="142.901" height="61.546" viewBox="0 0 142.901 61.546">
  <defs>
    <linearGradient id="linear-gradient" x1="-0.765" y1="1" x2="2.491" y2="1" gradientUnits="objectBoundingBox">
      <stop offset="0" stop-color="#f79735"/>
      <stop offset="1" stop-color="#f26722"/>
    </linearGradient>
  </defs>
  <g id="logo" transform="translate(5555.002 8711.993)">
    <g id="Group_450" data-name="Group 450" transform="translate(-5555.002 -8711.993)">
      <path id="Path_1" data-name="Path 1" d="M34.934,34.171c-2.011,0-3.834.032-5.656-.032-.345,0-.691-.5-1.038-.786-.6-.533-1.131-1.383-1.791-1.54-.628-.125-1.414.5-2.106.818a17.925,17.925,0,0,1-9.081,1.384A17.368,17.368,0,0,1,3.541,27.667,14.687,14.687,0,0,1,.492,21.382,19.679,19.679,0,0,1,.3,13.84,14.251,14.251,0,0,1,3.226,7.051a17.216,17.216,0,0,1,7.888-5.97A16.769,16.769,0,0,1,19.567.169a17.472,17.472,0,0,1,7.417,2.891,16.219,16.219,0,0,1,6.63,8.831,18.084,18.084,0,0,1,.818,6.474,15.514,15.514,0,0,1-3.268,8.8,7.591,7.591,0,0,1-.848,1.131c-.565.5-.408.818.063,1.256,1.351,1.288,2.639,2.609,3.96,3.928C34.462,33.638,34.619,33.826,34.934,34.171ZM15.577,20.91l.095-.188c1.734,0,3.457-.032,5.185.032a2,2,0,0,1,1.163.471q1.885,1.8,3.677,3.645c.5.5.911.44,1.288-.095a18.108,18.108,0,0,0,1.1-1.6A12.537,12.537,0,0,0,29.5,15.35,12.345,12.345,0,0,0,19.316,4.664a11.507,11.507,0,0,0-6.6.628A11.823,11.823,0,0,0,4.926,15.877a12.09,12.09,0,0,0,2.169,8.736,12.742,12.742,0,0,0,9.647,5.153,10.867,10.867,0,0,0,5.374-1.226c.723-.345.786-.565.22-1.131-1.163-1.1-2.326-2.169-3.488-3.3C17.745,23.109,16.676,22.012,15.577,20.91Z" transform="translate(-0.027 0.016)" fill="url(#linear-gradient)"/>
      <path id="Path_2" data-name="Path 2" d="M262.778,16.63h5.876c.5,0,.848.095.786.66-.283,3.237-.283,6.535-2.106,9.427a14.9,14.9,0,0,1-8.136,6.63,15.8,15.8,0,0,1-5.374.88,16.138,16.138,0,0,1-9.364-3.017,16.916,16.916,0,0,1-6.222-8.045,16.058,16.058,0,0,1-.786-3.645,27.9,27.9,0,0,1,.032-5.374,13.612,13.612,0,0,1,2.038-5.75,17.071,17.071,0,0,1,7.762-6.914A19.185,19.185,0,0,1,251.466.32a16.176,16.176,0,0,1,3.9-.283,14.922,14.922,0,0,1,8.578,2.985c1.2.943,2.294,2.043,3.425,3.08.408.345.408.66,0,1.038-.818.754-1.571,1.54-2.326,2.326-.377.408-.628.377-1.006-.063a12.8,12.8,0,0,0-5.374-4.085,11.53,11.53,0,0,0-6.284-.628,12.351,12.351,0,0,0-7.2,3.96A12.123,12.123,0,0,0,242,16.128a11.833,11.833,0,0,0,1.979,7.982,13.493,13.493,0,0,0,8.076,5.531c4.62,1.131,9.929-2.043,11.565-6.254a8.4,8.4,0,0,0,.408-1.256c.188-.754-.032-1.006-.818-1.006-2.134,0-4.305-.032-6.442,0-.691,0-.911-.22-.88-.911a25.258,25.258,0,0,0,0-2.667c-.032-.723.251-.88.911-.88C258.85,16.666,260.8,16.63,262.778,16.63Z" transform="translate(-162.759 -0.008)" fill="url(#linear-gradient)"/>
      <path id="Path_3" data-name="Path 3" d="M409.175,51.454c0,3.55.063,7.133-.032,10.684a9.915,9.915,0,0,1-1.2,4.8,8.659,8.659,0,0,1-6.034,4.431,12.116,12.116,0,0,1-7.667-.66,8.552,8.552,0,0,1-4.871-6.034c-.283-1.1-.063-1.351,1.067-1.351a22.272,22.272,0,0,0,2.514-.032.9.9,0,0,1,1.067.754,4.564,4.564,0,0,0,2.074,2.734c2.325,1.446,7.039,1.131,8.045-2.577a16.99,16.99,0,0,0,.533-5.342c0-.188-.125-.5-.22-.533a.934.934,0,0,0-.628.188,8.022,8.022,0,0,1-3.457,1.917,12.75,12.75,0,0,1-3.614.251,8.917,8.917,0,0,1-7.736-6.034,13.566,13.566,0,0,1-.628-6.316,9.487,9.487,0,0,1,5.782-8.61,8.825,8.825,0,0,1,9.521,1.383,2.548,2.548,0,0,0,.66.315,3.689,3.689,0,0,0,.283-.754c.063-1.131.063-1.131,1.226-1.131.786,0,1.571.032,2.357,0,.691-.032.911.188.911.88,0,3.677.032,7.353.032,11.03Zm-4.4-1.256a7.017,7.017,0,0,0-1.571-5.059,5.506,5.506,0,0,0-8.3-.44,7.3,7.3,0,0,0-1.854,6.694,6.779,6.779,0,0,0,2.169,4.117,5.619,5.619,0,0,0,6.945.22,6.28,6.28,0,0,0,2.609-5.532Z" transform="translate(-266.295 -26.694)" fill="url(#linear-gradient)"/>
      <path id="Path_4" data-name="Path 4" d="M127.6,48.562c0-2.231.032-4.463,0-6.669,0-.754.251-1.006,1.006-.974a17.631,17.631,0,0,0,2.577,0c.691-.032.88.22.88.911-.032,3.734-.095,7.479.032,11.218a8.2,8.2,0,0,0,.88,3.334,4.015,4.015,0,0,0,7.2-.974,10.16,10.16,0,0,0,.315-2.389c.032-3.708.032-7.447,0-11.155,0-.754.22-1.006.974-.974,1.006.063,1.979.032,2.985,0,.565-.032.723.188.723.723,0,3.9.095,7.793-.063,11.69a10.223,10.223,0,0,1-1.006,4.776,7.994,7.994,0,0,1-5.876,3.928,9.939,9.939,0,0,1-6.191-.723,7.157,7.157,0,0,1-4.437-6.778V48.569Z" transform="translate(-87.509 -28.044)" fill="url(#linear-gradient)"/>
      <path id="Path_5" data-name="Path 5" d="M208.962,51.364c0,3.142-.032,6.284,0,9.427,0,.754-.22,1.038-.974.974a17.633,17.633,0,0,0-2.577,0c-.691.032-.911-.188-.911-.88.032-1.823,0-3.677,0-5.5V42.03c0-1.038,0-1.038,1.038-1.038.848,0,1.666.032,2.514,0,.691-.032.911.188.911.88C208.93,45.017,208.962,48.191,208.962,51.364Z" transform="translate(-140.243 -28.112)" fill="url(#linear-gradient)"/>
      <path id="Path_6" data-name="Path 6" d="M360.955,51.363c0,3.142-.032,6.284,0,9.427,0,.754-.22,1.038-.974.974a25.245,25.245,0,0,0-2.667,0c-.6.032-.848-.188-.818-.818.032-1.854,0-3.708,0-5.562V42.031c0-1.038,0-1.038,1.038-1.038.848,0,1.666.032,2.514,0,.691-.032.911.188.911.88C360.925,45.016,360.955,48.19,360.955,51.363Z" transform="translate(-244.472 -28.111)" fill="url(#linear-gradient)"/>
      <path id="Path_7" data-name="Path 7" d="M207.98,6.619a2.667,2.667,0,0,1-2.859,2.954A2.864,2.864,0,0,1,202.1,6.744,2.857,2.857,0,0,1,205.121,3.6a2.674,2.674,0,0,1,2.859,3.017Z" transform="translate(-138.601 -2.472)" fill="url(#linear-gradient)"/>
      <path id="Path_8" data-name="Path 8" d="M359.912,6.62a2.639,2.639,0,0,1-2.892,2.922A2.863,2.863,0,0,1,354,6.714,2.818,2.818,0,0,1,357.021,3.6a2.667,2.667,0,0,1,2.892,3.017Z" transform="translate(-242.767 -2.473)" fill="url(#linear-gradient)"/>
    </g>
    <path id="Path_1011" data-name="Path 1011" d="M-32.388-.165h-1.719L-34.629,2.5h-.934l.521-2.667H-36.6v-.892h1.734l.449-2.306H-36.1v-.906h1.857l.533-2.709h.934l-.533,2.709h1.719l.533-2.709h.934l-.533,2.709h1.334v.9h-1.5l-.449,2.306h1.467v.895h-1.635L-31.964,2.5H-32.9Zm-1.544-.895h1.719l.449-2.306h-1.719Zm12.881,2.318A2.889,2.889,0,0,1-22.4,2.291a5.432,5.432,0,0,1-2.015.345,3.9,3.9,0,0,1-2.053-.547A3.622,3.622,0,0,1-27.854.542a5.342,5.342,0,0,1-.5-2.325v-.827a4.987,4.987,0,0,1,1-3.321,3.484,3.484,0,0,1,2.81-1.179,3.6,3.6,0,0,1,2.39.759A3.3,3.3,0,0,1-21.05-4.2H-22.3A2.066,2.066,0,0,0-23.03-5.6a2.066,2.066,0,0,0-1.511-.476,2.214,2.214,0,0,0-1.9.883A4.305,4.305,0,0,0-27.1-2.64v.775A4.036,4.036,0,0,0-26.37.669a2.365,2.365,0,0,0,1.973.942,4.349,4.349,0,0,0,1.231-.156,1.9,1.9,0,0,0,.872-.533V-1.213h-2.2V-2.218h3.438Zm3.2,1.244h-1.2V-4.543h1.2Zm-1.3-8.916a.719.719,0,0,1,.179-.495.667.667,0,0,1,.533-.2.683.683,0,0,1,.533.2.712.712,0,0,1,.183.495.688.688,0,0,1-.183.488.7.7,0,0,1-.533.195.684.684,0,0,1-.533-.195.7.7,0,0,1-.181-.488Zm2.944,5.335A4.141,4.141,0,0,1-15.449-3.7a2.437,2.437,0,0,1,2.019-.974,2.423,2.423,0,0,1,2.01.907l.059-.782h1.1V2.333a2.866,2.866,0,0,1-.811,2.155,2.992,2.992,0,0,1-2.178.788,3.624,3.624,0,0,1-1.491-.325,2.567,2.567,0,0,1-1.114-.892l.626-.723a2.355,2.355,0,0,0,1.9.958A1.846,1.846,0,0,0-11.962,3.8a1.891,1.891,0,0,0,.492-1.394V1.8a2.477,2.477,0,0,1-1.974.836,2.4,2.4,0,0,1-2-1,4.355,4.355,0,0,1-.767-2.719ZM-15-.945A3.16,3.16,0,0,0-14.511.922a1.587,1.587,0,0,0,1.367.68A1.765,1.765,0,0,0-11.47.568V-2.641a1.786,1.786,0,0,0-1.656-1.01,1.6,1.6,0,0,0-1.374.684A3.441,3.441,0,0,0-15-.942ZM-4.34.636a.887.887,0,0,0-.368-.759A3.541,3.541,0,0,0-5.991-.589a6.066,6.066,0,0,1-1.452-.469,2.066,2.066,0,0,1-.8-.651,1.558,1.558,0,0,1-.257-.9,1.827,1.827,0,0,1,.732-1.467,2.861,2.861,0,0,1,1.867-.6,2.945,2.945,0,0,1,1.945.619,1.965,1.965,0,0,1,.746,1.583H-4.423a1.087,1.087,0,0,0-.42-.854A1.574,1.574,0,0,0-5.9-3.684,1.647,1.647,0,0,0-6.929-3.4a.9.9,0,0,0-.371.75.731.731,0,0,0,.345.658,4.247,4.247,0,0,0,1.247.423,6.5,6.5,0,0,1,1.467.481,2.134,2.134,0,0,1,.831.674,1.658,1.658,0,0,1,.267.96,1.8,1.8,0,0,1-.748,1.515,3.169,3.169,0,0,1-1.961.573,3.548,3.548,0,0,1-1.5-.3A2.437,2.437,0,0,1-8.368,1.5,2.017,2.017,0,0,1-8.736.337h1.2a1.247,1.247,0,0,0,.485.96,1.882,1.882,0,0,0,1.2.355,1.943,1.943,0,0,0,1.1-.277A.851.851,0,0,0-4.34.636ZM-1.377,2.5V-6.979H1.3a4.309,4.309,0,0,1,2.189.547A3.7,3.7,0,0,1,4.956-4.875,5.068,5.068,0,0,1,5.48-2.557v.606A5.084,5.084,0,0,1,4.963.4a3.642,3.642,0,0,1-1.478,1.55A4.583,4.583,0,0,1,1.247,2.5ZM-.126-5.95V1.48H1.189a2.863,2.863,0,0,0,2.249-.9,3.71,3.71,0,0,0,.8-2.559v-.553a3.769,3.769,0,0,0-.759-2.51,2.7,2.7,0,0,0-2.153-.908ZM6.86-1.085a4.162,4.162,0,0,1,.407-1.867A3.037,3.037,0,0,1,8.4-4.228a3.085,3.085,0,0,1,1.658-.449,2.972,2.972,0,0,1,2.329,1,3.833,3.833,0,0,1,.894,2.655v.084A4.2,4.2,0,0,1,12.881.9a2.992,2.992,0,0,1-1.127,1.274,3.12,3.12,0,0,1-1.682.46,2.964,2.964,0,0,1-2.322-1A3.814,3.814,0,0,1,6.86-1Zm1.211.143A3.014,3.014,0,0,0,8.613.94a1.734,1.734,0,0,0,1.459.71,1.734,1.734,0,0,0,1.459-.72,3.3,3.3,0,0,0,.54-2.014,3.009,3.009,0,0,0-.551-1.881,1.75,1.75,0,0,0-1.467-.72,1.734,1.734,0,0,0-1.44.712,3.272,3.272,0,0,0-.54,2.031Zm7.854-3.6.039.886a2.567,2.567,0,0,1,2.11-1.016q2.234,0,2.253,2.521V2.5h-1.2V-2.165a1.622,1.622,0,0,0-.348-1.127,1.4,1.4,0,0,0-1.067-.364,1.734,1.734,0,0,0-1.028.312,2.123,2.123,0,0,0-.691.82V2.5h-1.2V-4.543ZM25.07,2.636a3.078,3.078,0,0,1-2.331-.944,3.493,3.493,0,0,1-.9-2.523v-.221a4.228,4.228,0,0,1,.4-1.867,3.125,3.125,0,0,1,1.12-1.29,2.817,2.817,0,0,1,1.559-.465,2.639,2.639,0,0,1,2.134.906,3.92,3.92,0,0,1,.766,2.593v.5H23.044a2.5,2.5,0,0,0,.61,1.683,1.914,1.914,0,0,0,1.482.642,2.1,2.1,0,0,0,1.082-.267,2.717,2.717,0,0,0,.775-.691l.736.573A2.959,2.959,0,0,1,25.07,2.636Zm-.151-6.32a1.6,1.6,0,0,0-1.224.533,2.579,2.579,0,0,0-.612,1.488h3.536v-.091a2.3,2.3,0,0,0-.494-1.423,1.512,1.512,0,0,0-1.2-.509ZM36.641-1.933A5.856,5.856,0,0,1,36.2.434,3.658,3.658,0,0,1,34.98,1.988l1.694,1.334-.854.782-2-1.587a4.068,4.068,0,0,1-.988.12,3.624,3.624,0,0,1-1.986-.553A3.637,3.637,0,0,1,29.5.513a5.628,5.628,0,0,1-.492-2.361v-.684a5.8,5.8,0,0,1,.475-2.417,3.624,3.624,0,0,1,1.344-1.6,3.609,3.609,0,0,1,1.99-.556,3.672,3.672,0,0,1,2.015.553,3.57,3.57,0,0,1,1.334,1.592,5.848,5.848,0,0,1,.469,2.426Zm-1.25-.612a4.3,4.3,0,0,0-.667-2.582,2.222,2.222,0,0,0-1.906-.906,2.2,2.2,0,0,0-1.859.9,4.164,4.164,0,0,0-.7,2.5v.7a4.291,4.291,0,0,0,.68,2.566,2.206,2.206,0,0,0,1.891.934A2.21,2.21,0,0,0,34.706.685a4.233,4.233,0,0,0,.684-2.534Zm7.335,4.351a2.559,2.559,0,0,1-2.061.831,2.19,2.19,0,0,1-1.716-.655A2.833,2.833,0,0,1,38.355.041V-4.543h1.2V.009q0,1.6,1.3,1.6A1.8,1.8,0,0,0,42.695.581V-4.543h1.2V2.5H42.756Zm4.315.7h-1.2V-4.543h1.2Zm-1.3-8.916a.719.719,0,0,1,.179-.495.667.667,0,0,1,.533-.2.683.683,0,0,1,.533.2.712.712,0,0,1,.183.495.688.688,0,0,1-.183.488.7.7,0,0,1-.533.195.684.684,0,0,1-.533-.195.7.7,0,0,1-.177-.488ZM51.8,1.649a1.734,1.734,0,0,0,1.127-.391,1.375,1.375,0,0,0,.533-.976H54.6a2.185,2.185,0,0,1-.416,1.152,2.745,2.745,0,0,1-1.026.872,2.959,2.959,0,0,1-1.358.329,2.9,2.9,0,0,1-2.289-.96,3.826,3.826,0,0,1-.85-2.627v-.2a4.243,4.243,0,0,1,.377-1.83,2.877,2.877,0,0,1,1.084-1.244,3.08,3.08,0,0,1,1.67-.443,2.826,2.826,0,0,1,1.97.71A2.534,2.534,0,0,1,54.6-2.117H53.456a1.66,1.66,0,0,0-.517-1.123,1.611,1.611,0,0,0-1.15-.44,1.686,1.686,0,0,0-1.423.667,3.1,3.1,0,0,0-.5,1.911v.228a3.042,3.042,0,0,0,.5,1.866A1.694,1.694,0,0,0,51.8,1.649Zm6.122-2.41-.755.788V2.5h-1.2v-10h1.2v6.05l.644-.775L60-4.543h1.467L58.724-1.6l3.061,4.1H60.372Z" transform="translate(-5497.86 -8655.728)" fill="#585858" opacity="0.702"/>
  </g>
</svg>
