<svg id="phone-icon" xmlns="http://www.w3.org/2000/svg" width="42.271" height="42.272" viewBox="0 0 42.271 42.272">
  <g id="Group_1204" data-name="Group 1204" transform="translate(0 0)">
    <path id="Path_1577" data-name="Path 1577" d="M32.143,70.043a2.962,2.962,0,0,0-4.477,0c-1.047,1.038-2.094,2.076-3.123,3.132a.617.617,0,0,1-.862.158c-.677-.369-1.4-.669-2.05-1.073A32.473,32.473,0,0,1,13.8,65.134,18.547,18.547,0,0,1,11,60.639a.644.644,0,0,1,.158-.827c1.047-1.012,2.067-2.05,3.1-3.088a2.973,2.973,0,0,0-.009-4.583c-.818-.827-1.636-1.636-2.454-2.463-.844-.844-1.68-1.7-2.533-2.533a2.981,2.981,0,0,0-4.477.009c-1.056,1.038-2.067,2.1-3.14,3.123a5.1,5.1,0,0,0-1.6,3.439,14.572,14.572,0,0,0,1.126,6.272A38.111,38.111,0,0,0,7.927,71.257,41.86,41.86,0,0,0,21.79,82.1a20.05,20.05,0,0,0,7.679,2.234A5.628,5.628,0,0,0,34.3,82.5c.9-1,1.909-1.918,2.859-2.876a2.993,2.993,0,0,0,.018-4.557Q34.668,72.545,32.143,70.043Z" transform="translate(-0.006 -42.079)"/>
    <path id="Path_1578" data-name="Path 1578" d="M247.389,108.509l3.246-.554A14.57,14.57,0,0,0,238.311,96l-.457,3.263a11.26,11.26,0,0,1,9.535,9.245Z" transform="translate(-216.932 -87.555)"/>
    <path id="Path_1579" data-name="Path 1579" d="M256.934,6.844A23.934,23.934,0,0,0,243.211,0l-.457,3.263A20.884,20.884,0,0,1,260.426,20.39l3.246-.554A24.109,24.109,0,0,0,256.934,6.844Z" transform="translate(-221.401)"/>
  </g>
</svg>
